#!OML:ASF X:\für Bonn\!DataBase\2005_08_10_Bjorn_Final\c3d\bjorn.ASF
:FULLY-SPECIFIED
:DEGREES
873
root -0.143354 1.57311 11.5076 -2070.49 -5.9717 188.486
lowerback -2.4743 0.175588 -3.42697
upperback 4.76026 0.407852 -4.59683
thorax 6.35906 0.0362857 -2.86436
lowerneck -19.9291 -5.39009 0.537986
upperneck 4.47683 -8.26946 5.18183
head 4.7128 -3.88848 0.728791
rclavicle 1.90833e-014 1.19271e-015
rhumerus -54.7028 43.5917 -102.67
rradius 112.041
rwrist -32.9171
rhand 12.2559 6.31622
rfingers 7.12502
rthumb 37.2627 -19.6799
lclavicle 1.90833e-014 1.19271e-015
lhumerus -57.048 -67.3484 101.405
lradius 112.33
lwrist 35.1554
lhand 6.42442 -11.5718
lfingers 7.12502
lthumb 31.7277 735.688
rfemur -366.954 -23.8158 367.068
rtibia 28.9747
rfoot 5.42838 -11.4004
rtoes 13.1634
lfemur -6.23677 1.96474 -14.6302
ltibia 20.428
lfoot 6.93552 9.59566
ltoes 3.27404
874
root -0.143177 1.57301 11.5077 -2070.5 -5.95746 188.495
lowerback -2.46351 0.173457 -3.4056
upperback 4.78387 0.403511 -4.60874
thorax 6.37812 0.0346265 -2.88982
lowerneck -20.0296 -5.37475 0.568157
upperneck 4.49251 -8.26227 5.18648
head 4.73197 -3.88291 0.723502
rclavicle -6.36111e-015 -4.85035e-014
rhumerus -54.6724 43.5655 -102.681
rradius 112.036
rwrist -32.8521
rhand 12.3389 6.3686
rfingers 7.12502
rthumb 37.3411 -19.6069
lclavicle -6.36111e-015 -4.85035e-014
lhumerus -56.9532 -67.3766 101.298
lradius 112.335
lwrist 35.2296
lhand 6.42199 -11.5117
lfingers 7.12502
lthumb 31.7253 735.749
rfemur -366.945 -23.8017 367.085
rtibia 28.9713
rfoot 5.42304 -11.4137
rtoes 13.149
lfemur -6.23581 1.96796 -14.6131
ltibia 20.4307
lfoot 6.95615 9.57967
ltoes 3.20584
875
root -0.143364 1.57333 11.5079 -2070.5 -5.94324 188.497
lowerback -2.49168 0.173074 -3.40299
upperback 4.81894 0.405427 -4.59738
thorax 6.43167 0.034707 -2.88036
lowerneck -20.1068 -5.36203 0.570186
upperneck 4.45905 -8.24747 5.18407
head 4.73258 -3.87628 0.722596
rclavicle 4.77083e-015 3.4191e-014
rhumerus -54.6139 43.5964 -102.638
rradius 112.024
rwrist -32.8067
rhand 12.3534 6.39542
rfingers 7.12502
rthumb 37.3549 -19.5765
lclavicle 4.77083e-015 3.4191e-014
lhumerus -56.7839 -67.3936 101.173
lradius 112.321
lwrist 35.2548
lhand 6.45454 -11.4445
lfingers 7.12502
lthumb 31.7563 735.81
rfemur -366.948 -23.8182 367.101
rtibia 28.9637
rfoot 5.44369 -11.3992
rtoes 13.1962
lfemur -6.24648 1.96818 -14.5982
ltibia 20.4367
lfoot 6.96689 9.58067
ltoes 3.24553
876
root -0.142524 1.57346 11.5076 -2070.51 -5.92745 188.497
lowerback -2.48247 0.16352 -3.40605
upperback 4.84906 0.392825 -4.58702
thorax 6.45797 0.0275513 -2.86944
lowerneck -20.1702 -5.33664 0.553662
upperneck 4.42821 -8.21352 5.207
head 4.73352 -3.85886 0.734586
rclavicle 4.13472e-014 -2.22639e-014
rhumerus -54.5872 43.6569 -102.627
rradius 112.031
rwrist -32.7819
rhand 12.3673 6.4471
rfingers 7.12502
rthumb 37.368 -19.5213
lclavicle 4.13472e-014 -2.22639e-014
lhumerus -56.6717 -67.3703 101.07
lradius 112.323
lwrist 35.2923
lhand 6.51805 -11.4041
lfingers 7.12502
lthumb 31.8168 735.838
rfemur -366.928 -23.8213 367.117
rtibia 28.9591
rfoot 5.45553 -11.4262
rtoes 13.2614
lfemur -6.23379 1.98314 -14.5758
ltibia 20.4437
lfoot 6.97455 9.56352
ltoes 3.23894
877
root -0.142105 1.57355 11.5082 -2070.51 -5.92833 188.511
lowerback -2.48565 0.159007 -3.42485
upperback 4.87356 0.388327 -4.57804
thorax 6.48561 0.0236243 -2.85048
lowerneck -20.2528 -5.3267 0.574211
upperneck 4.4197 -8.20191 5.1634
head 4.74007 -3.85472 0.717318
rclavicle -2.70347e-014 5.1684e-015
rhumerus -54.5538 43.678 -102.596
rradius 112.037
rwrist -32.7598
rhand 12.424 6.4861
rfingers 7.12502
rthumb 37.4217 -19.4682
lclavicle -2.70347e-014 5.1684e-015
lhumerus -56.6373 -67.3797 101.049
lradius 112.351
lwrist 35.3257
lhand 6.55533 -11.337
lfingers 7.12502
lthumb 31.8523 735.898
rfemur -366.921 -23.8151 367.119
rtibia 28.9537
rfoot 5.44677 -11.4337
rtoes 13.373
lfemur -6.23724 1.92336 -14.5786
ltibia 20.4509
lfoot 6.93158 9.60652
ltoes 3.47053
878
root -0.141803 1.57376 11.5077 -2070.53 -5.92858 188.512
lowerback -2.48222 0.156427 -3.4419
upperback 4.90809 0.385775 -4.5744
thorax 6.52026 0.020367 -2.83823
lowerneck -20.3484 -5.30687 0.596098
upperneck 4.41375 -8.18251 5.14867
head 4.75067 -3.845 0.709145
rclavicle -2.8625e-014 -2.28602e-014
rhumerus -54.5044 43.7129 -102.589
rradius 112.047
rwrist -32.7476
rhand 12.4238 6.45376
rfingers 7.12502
rthumb 37.4214 -19.5006
lclavicle -2.8625e-014 -2.28602e-014
lhumerus -56.5549 -67.378 100.975
lradius 112.363
lwrist 35.353
lhand 6.65568 -11.2715
lfingers 7.12502
lthumb 31.9479 735.945
rfemur -366.899 -23.8 367.115
rtibia 28.9477
rfoot 5.43514 -11.4429
rtoes 13.3944
lfemur -6.22603 1.93284 -14.5765
ltibia 20.4604
lfoot 6.93391 9.59239
ltoes 3.46442
879
root -0.141272 1.57376 11.5079 -2070.52 -5.91419 188.511
lowerback -2.50056 0.15496 -3.43239
upperback 4.94209 0.385084 -4.57779
thorax 6.56724 0.0195613 -2.84837
lowerneck -20.4831 -5.28728 0.633695
upperneck 4.42809 -8.16785 5.11983
head 4.7724 -3.83715 0.692439
rclavicle 5.08889e-014 -4.41302e-014
rhumerus -54.4433 43.744 -102.567
rradius 112.056
rwrist -32.7642
rhand 12.4539 6.49061
rfingers 7.12502
rthumb 37.4499 -19.4562
lclavicle 5.08889e-014 -4.41302e-014
lhumerus -56.4892 -67.4085 100.895
lradius 112.401
lwrist 35.4122
lhand 6.67922 -11.2051
lfingers 7.12502
lthumb 31.9703 736.007
rfemur -366.904 -23.7831 367.139
rtibia 28.9399
rfoot 5.43703 -11.4717
rtoes 13.4765
lfemur -6.23949 1.94953 -14.5573
ltibia 20.4704
lfoot 6.94966 9.55636
ltoes 3.44416
880
root -0.141351 1.57361 11.5072 -2070.53 -5.91405 188.512
lowerback -2.50102 0.166761 -3.42711
upperback 4.9739 0.400292 -4.58984
thorax 6.60203 0.026122 -2.86381
lowerneck -20.5842 -5.28065 0.654949
upperneck 4.42914 -8.16873 5.11607
head 4.78702 -3.8368 0.685421
rclavicle 2.22639e-014 -7.55382e-015
rhumerus -54.3967 43.7147 -102.56
rradius 112.067
rwrist -32.764
rhand 12.5014 6.52508
rfingers 7.12502
rthumb 37.4948 -19.4098
lclavicle 2.22639e-014 -7.55382e-015
lhumerus -56.4952 -67.4586 100.902
lradius 112.447
lwrist 35.4931
lhand 6.69421 -11.1105
lfingers 7.12502
lthumb 31.9846 736.099
rfemur -366.893 -23.7198 367.146
rtibia 28.9345
rfoot 5.38395 -11.5134
rtoes 13.5928
lfemur -6.23513 1.93612 -14.5578
ltibia 20.4789
lfoot 6.93697 9.56399
ltoes 3.47119
881
root -0.14102 1.57391 11.5068 -2070.54 -5.89972 188.513
lowerback -2.50183 0.163882 -3.43141
upperback 5.0209 0.397179 -4.57861
thorax 6.65243 0.022875 -2.85114
lowerneck -20.7637 -5.2605 0.687971
upperneck 4.46583 -8.14911 5.05646
head 4.82105 -3.82673 0.659036
rclavicle -3.65764e-014 9.72057e-014
rhumerus -54.3331 43.7572 -102.52
rradius 112.101
rwrist -32.8035
rhand 12.4716 6.4819
rfingers 7.12502
rthumb 37.4666 -19.4605
lclavicle -3.65764e-014 9.72057e-014
lhumerus -56.4493 -67.4461 100.86
lradius 112.489
lwrist 35.5488
lhand 6.74889 -11.0698
lfingers 7.12502
lthumb 32.0366 736.129
rfemur -366.87 -23.7045 367.158
rtibia 28.9297
rfoot 5.3512 -11.5344
rtoes 13.7259
lfemur -6.221 1.94949 -14.5388
ltibia 20.4851
lfoot 6.94701 9.53752
ltoes 3.53108
882
root -0.140498 1.57353 11.5066 -2070.56 -5.8997 188.537
lowerback -2.48629 0.151937 -3.44183
upperback 5.04432 0.381193 -4.58296
thorax 6.66807 0.0138878 -2.85172
lowerneck -20.9 -5.23179 0.705516
upperneck 4.48999 -8.11831 5.03986
head 4.84714 -3.80983 0.650716
rclavicle -5.24792e-014 -9.93923e-015
rhumerus -54.3063 43.7869 -102.546
rradius 112.119
rwrist -32.8162
rhand 12.4621 6.48573
rfingers 7.12502
rthumb 37.4576 -19.459
lclavicle -5.24792e-014 -9.93923e-015
lhumerus -56.5066 -67.4278 100.894
lradius 112.558
lwrist 35.5865
lhand 6.7166 -10.9645
lfingers 7.12502
lthumb 32.0059 736.24
rfemur -366.849 -23.6934 367.158
rtibia 28.9208
rfoot 5.33947 -11.5689
rtoes 13.8338
lfemur -6.22713 1.91222 -14.5387
ltibia 20.5002
lfoot 6.92522 9.56193
ltoes 3.5931
